<?xml version="1.0" encoding="utf-8"?>
<!-- Generator: Adobe Illustrator 28.1.0, SVG Export Plug-In . SVG Version: 6.00 Build 0)  -->
<svg version="1.1" id="Layer_1" xmlns="http://www.w3.org/2000/svg" xmlns:xlink="http://www.w3.org/1999/xlink" x="0px" y="0px"
	 viewBox="0 0 1000 1000" style="enable-background:new 0 0 1000 1000;" xml:space="preserve">
<style type="text/css">
	.st0{opacity:0.6;fill:#54A846;}
	.st1{fill:#31B889;}
	.st2{fill:#5BC096;}
	.st3{fill:#04996F;}
	.st4{fill:#B7C2BF;}
	.st5{fill:#9AABA7;}
	.st6{fill:#FFFFFF;}
	.st7{fill:#EF3D39;}
	.st8{fill:#78909C;}
	.st9{fill:#FAAA43;}
	.st10{fill:#3374BA;}
	.st11{fill:#89D0C2;}
	.st12{clip-path:url(#SVGID_00000152222560529026511410000009014767875805619637_);}
	.st13{fill:#546F7A;}
	.st14{fill:#F79D80;}
	.st15{fill:#4E342E;}
	.st16{clip-path:url(#SVGID_00000114033714387631973210000015099041001380036254_);}
	.st17{fill:#EF4581;}
	.st18{clip-path:url(#SVGID_00000115490743449016092550000013190953484240381089_);}
	.st19{fill:#FEE900;}
	.st20{clip-path:url(#SVGID_00000072282194516375537950000007719691272958559148_);}
	.st21{fill:#19499E;}
	.st22{fill:#091C3C;}
	.st23{fill:#365FAC;}
	.st24{fill:#1D3766;}
	.st25{fill:#527BBE;}
	.st26{opacity:0.5;fill:#527BBE;}
	.st27{fill:#2E5DAB;}
	.st28{fill:#1B2B58;}
	.st29{fill:none;stroke:#BDBDBD;stroke-miterlimit:10;}
	.st30{fill:none;stroke:#BDBDBD;stroke-linecap:round;stroke-miterlimit:10;}
	.st31{fill:#325FAC;}
	.st32{fill:#6B90CB;}
	.st33{fill:none;stroke:#B0BEC5;stroke-width:5;stroke-linecap:round;stroke-linejoin:round;stroke-miterlimit:10;}
	.st34{fill:#0F5362;}
	.st35{fill:#702C83;}
	.st36{fill:#14829A;}
	.st37{opacity:0.5;fill:#E2F4FD;}
	.st38{opacity:0.3;fill:#FFFFFF;}
	.st39{fill:#37474F;}
	.st40{fill:#1A2226;}
	.st41{fill:#54A846;}
</style>
<rect x="3.53" class="st0" width="996.47" height="1007.6"/>
<g>
	<polygon class="st1" points="505.95,520.28 640.66,442.51 461.54,339.09 326.83,416.87 	"/>
	<polygon class="st2" points="505.95,485.15 640.66,407.38 461.54,303.96 326.83,381.74 	"/>
	<polygon class="st1" points="326.83,381.74 326.83,423.02 505.95,526.43 505.95,485.15 	"/>
	<polygon class="st3" points="505.95,520.28 640.66,442.51 640.66,448.66 505.95,526.43 	"/>
	<polygon class="st3" points="505.95,485.16 640.66,407.38 640.66,413.53 505.95,491.31 	"/>
	<polygon class="st4" points="635.34,416.61 635.34,445.58 505.95,520.28 505.95,491.31 	"/>
	<g>
		<polygon class="st5" points="635.34,438.47 505.95,513.17 505.95,512 635.34,437.3 		"/>
		<polygon class="st5" points="635.34,433.77 505.95,508.47 505.95,507.31 635.34,432.61 		"/>
		<polygon class="st5" points="505.95,516.7 635.34,442 635.34,443.16 505.95,517.86 		"/>
		<polygon class="st5" points="635.34,418.53 635.34,419.69 505.95,494.4 505.95,493.23 		"/>
		<polygon class="st5" points="635.34,429.08 505.95,503.78 505.95,502.62 635.34,427.92 		"/>
		<polygon class="st5" points="635.34,424.39 505.95,499.09 505.95,497.92 635.34,423.22 		"/>
	</g>
</g>
<g>
	<g>
		<polygon class="st6" points="681.24,700.37 811.31,625.28 622.25,516.12 492.17,591.22 		"/>
		<polygon class="st7" points="617.28,646.5 717.99,588.35 709.44,583.41 608.72,641.56 		"/>
		<polygon class="st8" points="708.98,609.79 732.06,596.47 723.5,591.53 700.42,604.86 		"/>
		<polygon class="st8" points="631.34,654.62 694.66,618.06 686.11,613.12 622.79,649.68 		"/>
		<polygon class="st8" points="723.91,618.41 746.99,605.09 738.43,600.15 715.35,613.48 		"/>
		<polygon class="st8" points="646.27,663.24 709.59,626.68 701.04,621.74 637.72,658.3 		"/>
		<polygon class="st8" points="738.84,627.03 761.92,613.71 753.36,608.77 730.28,622.1 		"/>
		<polygon class="st8" points="661.21,671.86 724.53,635.3 715.97,630.36 652.65,666.92 		"/>
		<polygon class="st9" points="718.77,663.89 683.09,684.49 669.76,676.8 705.44,656.2 		"/>
		<path class="st10" d="M614.56,537.47c3.71,2.14,9.74,2.14,13.45,0c3.71-2.14,3.71-5.62,0-7.77c-3.71-2.14-9.74-2.14-13.45,0
			C610.85,531.85,610.85,535.33,614.56,537.47z"/>
		<ellipse class="st11" cx="611.39" cy="584.95" rx="57.06" ry="32.95"/>
		<g>
			<defs>
				<ellipse id="SVGID_9_" cx="611.39" cy="584.95" rx="57.06" ry="32.95"/>
			</defs>
			<clipPath id="SVGID_00000020394028286435724470000014355756323241445535_">
				<use xlink:href="#SVGID_9_"  style="overflow:visible;"/>
			</clipPath>
			<g style="clip-path:url(#SVGID_00000020394028286435724470000014355756323241445535_);">
				<path class="st13" d="M617.68,605.73l5.03-5.87l7.26-4.19l7.26-4.19l10.17-2.9c11.05-3.16,24.26-2.4,34.02,1.95l12.48,5.55
					l-31.61,18.25l-31.61,18.25l-9.62-7.2C613.52,619.74,612.21,612.11,617.68,605.73z"/>
				<path class="st14" d="M638.01,600.32L638.01,600.32c4.01-2.31,3.51-6.36-1.12-9.03l-7.72-4.46l-14.51,8.38l7.72,4.46
					C627,602.34,634.01,602.63,638.01,600.32z"/>
				<path class="st14" d="M619.31,573.66c3.94,2.28,8.77,3.18,10.79,2.01c2.02-1.17,0.46-3.95-3.48-6.23
					c-3.94-2.28-8.77-3.18-10.79-2.01C613.81,568.59,615.37,571.38,619.31,573.66z"/>
				<path class="st14" d="M583.68,594.23c3.94,2.28,8.77,3.18,10.79,2.01c2.02-1.17,0.46-3.95-3.48-6.23
					c-3.94-2.28-8.77-3.18-10.79-2.01C578.18,589.17,579.74,591.95,583.68,594.23z"/>
				<path class="st14" d="M629.24,595.75L629.24,595.75c9.37-5.41,8.19-14.85-2.62-21.1l-21.04-12.15l-33.92,19.58l21.04,12.15
					C603.52,600.48,619.88,601.15,629.24,595.75z"/>
				<path class="st15" d="M621.56,571.73l-15.99-9.23c0,0-8.45,11.47-33.92,19.58l15.99,9.23c0,0-16.87-5.13-24.66-11.61
					c-1.74-1.45-1.99-3.32-0.75-4.93c1.93-2.5,5.75-6.52,12.56-10.45c6.3-3.63,13.21-6.29,17.97-7.9c3.48-1.17,7.9-0.85,10.75,0.8
					C609.22,560.5,618.35,566.35,621.56,571.73z"/>
				<path class="st15" d="M590.27,592.83l5.05,2.92c9.37,5.41,24.55,5.41,33.92,0c9.37-5.41,9.37-14.17,0-19.58l-5.05-2.92
					c0,0,4.34,3.16,2.51,6.2c-1.83,3.03-9.19,3-14.85,6.26c-5.65,3.26-5.6,7.52-10.85,8.57
					C595.75,595.34,590.27,592.83,590.27,592.83z M609.91,591.77c0.94-1.1,2.6-2.74,5.15-4.21c2.55-1.47,5.39-2.43,7.3-2.97
					c0.98-0.28,2.05,0.27,1.68,0.87c-1.33,2.15-4.54,4.2-4.89,4.43c-0.02,0.01-0.04,0.02-0.07,0.04c-0.39,0.21-3.94,2.06-7.67,2.83
					C610.38,592.95,609.43,592.34,609.91,591.77z"/>
			</g>
		</g>
	</g>
	<g>
		<polygon class="st6" points="234.06,958.55 364.13,883.46 175.07,774.3 45,849.39 		"/>
		<ellipse class="st11" cx="164.22" cy="843.13" rx="57.06" ry="32.95"/>
		<g>
			<defs>
				<ellipse id="SVGID_11_" cx="164.22" cy="843.13" rx="57.06" ry="32.95"/>
			</defs>
			<clipPath id="SVGID_00000178907793591062680020000007005806117762414228_">
				<use xlink:href="#SVGID_11_"  style="overflow:visible;"/>
			</clipPath>
			<g style="clip-path:url(#SVGID_00000178907793591062680020000007005806117762414228_);">
				<polygon class="st15" points="182.13,874.04 217.76,853.47 178.72,830.93 143.09,851.5 				"/>
				<path class="st17" d="M177.94,856.65l4.85-2.8l4.85-2.8c0,0,19.64-8.7,49.68,8.64l-22.21,12.82l-22.21,12.82
					C162.86,867.99,177.94,856.65,177.94,856.65z"/>
				<path class="st14" d="M202.71,848.89c3.09,4.56,1.45,9.94-4.93,13.62c-6.38,3.68-15.69,4.63-23.59,2.85
					c-0.45-5.54,3.75-8.7,3.75-8.7l4.85-2.8l4.85-2.8C187.64,851.05,193.12,848.63,202.71,848.89z"/>
				<path class="st14" d="M189.93,857.97L189.93,857.97c2.68-1.55,2.34-4.25-0.75-6.04l-7.3-4.21l-9.71,5.6l7.3,4.21
					C182.57,859.33,187.25,859.52,189.93,857.97z"/>
				<path class="st14" d="M174.25,832.57c3.94,2.28,8.77,3.18,10.79,2.01c2.02-1.17,0.46-3.95-3.48-6.23
					c-3.94-2.28-8.77-3.18-10.79-2.01C168.75,827.5,170.3,830.29,174.25,832.57z"/>
				<path class="st14" d="M138.62,853.14c3.94,2.28,8.77,3.18,10.79,2.01c2.02-1.17,0.46-3.95-3.48-6.23
					c-3.94-2.28-8.77-3.18-10.79-2.01C133.12,848.07,134.67,850.86,138.62,853.14z"/>
				<path class="st14" d="M181.22,852.95L181.22,852.95c9.37-5.41,8.19-14.85-2.62-21.1l-21.04-12.15l-33.92,19.58l21.04,12.15
					C155.49,857.68,171.85,858.35,181.22,852.95z"/>
				<path class="st15" d="M144.99,834.21c0,0,16.94,0.95,28.44-5.34l8.87,5.12c0,0-2.06-9.23-22.61-15.69
					c-20.56-6.46-32.89,9.89-32.89,9.89s-14.05,4.15-7.65,11.14c6.4,6.99,29.23,14.24,29.23,14.24S127.89,842.93,144.99,834.21z"/>
			</g>
		</g>
		<polygon class="st7" points="170.1,904.67 270.81,846.53 262.26,841.59 161.55,899.73 		"/>
		<polygon class="st8" points="261.8,867.97 284.88,854.65 276.33,849.71 253.25,863.03 		"/>
		<polygon class="st8" points="184.17,912.79 247.49,876.24 238.93,871.3 175.61,907.85 		"/>
		<polygon class="st8" points="276.73,876.59 299.81,863.27 291.26,858.33 268.18,871.65 		"/>
		<polygon class="st8" points="199.1,921.41 262.42,884.86 253.86,879.92 190.54,916.47 		"/>
		<polygon class="st8" points="291.66,885.21 314.74,871.89 306.19,866.95 283.11,880.27 		"/>
		<polygon class="st8" points="214.03,930.03 277.35,893.48 268.79,888.54 205.47,925.1 		"/>
		<polygon class="st9" points="271.59,922.07 235.91,942.67 222.58,934.97 258.26,914.37 		"/>
		<path class="st10" d="M167.39,795.65c3.71,2.14,9.74,2.14,13.45,0c3.71-2.14,3.71-5.62,0-7.77c-3.71-2.14-9.74-2.14-13.45,0
			C163.67,790.03,163.67,793.51,167.39,795.65z"/>
	</g>
	<g>
		<polygon class="st6" points="532.18,786.43 662.25,711.34 473.19,602.18 343.12,677.28 		"/>
		<polygon class="st7" points="468.22,732.55 568.93,674.41 560.38,669.47 459.66,727.61 		"/>
		<polygon class="st8" points="559.92,695.85 583,682.53 574.44,677.59 551.36,690.91 		"/>
		<polygon class="st8" points="482.29,740.68 545.61,704.12 537.05,699.18 473.73,735.74 		"/>
		<polygon class="st8" points="574.85,704.47 597.93,691.15 589.37,686.21 566.29,699.53 		"/>
		<polygon class="st8" points="497.22,749.3 560.54,712.74 551.98,707.8 488.66,744.36 		"/>
		<polygon class="st8" points="589.78,713.09 612.86,699.77 604.3,694.83 581.22,708.15 		"/>
		<polygon class="st8" points="512.15,757.92 575.47,721.36 566.91,716.42 503.59,752.98 		"/>
		<polygon class="st9" points="569.71,749.95 534.03,770.55 520.7,762.86 556.38,742.26 		"/>
		<path class="st10" d="M465.5,623.53c3.71,2.14,9.74,2.14,13.45,0c3.71-2.14,3.71-5.62,0-7.77c-3.71-2.14-9.74-2.14-13.45,0
			C461.79,617.91,461.79,621.39,465.5,623.53z"/>
		<ellipse class="st11" cx="462.34" cy="671.01" rx="57.06" ry="32.95"/>
		<g>
			<defs>
				<ellipse id="SVGID_13_" cx="462.34" cy="671.01" rx="57.06" ry="32.95"/>
			</defs>
			<clipPath id="SVGID_00000115476497467913951950000014680614907850121130_">
				<use xlink:href="#SVGID_13_"  style="overflow:visible;"/>
			</clipPath>
			<g style="clip-path:url(#SVGID_00000115476497467913951950000014680614907850121130_);">
				<path class="st15" d="M501.95,680.53c0.15,0.85,0.21,1.73-0.23,2.54c-0.44,0.82-1.48,1.57-2.9,1.8
					c-1.96,0.32-3.93-0.39-5.56-1.09c-9.17-3.91-17.64-8.79-21.48-14.98c-0.95-1.53-1.6-3.2-0.84-4.77c0.74-1.51,3.58-3.12,6.5-2.83
					c2.73,0.27,5.87,1.75,8.02,2.69c5.81,2.52,10.45,5.94,13.35,9.79C500.46,675.85,501.54,678.17,501.95,680.53z"/>
				<path class="st19" d="M475.68,684.65l4.85-2.8l4.85-2.8c0,0,19.64-8.7,49.68,8.64l-22.21,12.82l-22.21,12.82
					C460.61,695.99,475.68,684.65,475.68,684.65z"/>
				<path class="st14" d="M500.45,676.89c3.09,4.56,1.45,9.94-4.93,13.62c-6.38,3.68-15.69,4.63-23.59,2.85
					c-0.45-5.54,3.75-8.7,3.75-8.7l4.85-2.8l4.85-2.8C485.39,679.05,490.87,676.62,500.45,676.89z"/>
				<path class="st14" d="M487.67,685.97L487.67,685.97c2.68-1.55,2.34-4.25-0.75-6.04l-7.3-4.21l-9.71,5.6l7.3,4.21
					C480.31,687.33,484.99,687.52,487.67,685.97z"/>
				<path class="st14" d="M469.03,658.86c3.94,2.28,8.77,3.18,10.79,2.01c2.02-1.17,0.46-3.95-3.48-6.23
					c-3.94-2.28-8.77-3.18-10.79-2.01C463.53,653.79,465.09,656.58,469.03,658.86z"/>
				<path class="st14" d="M433.4,679.43c3.94,2.28,8.77,3.18,10.79,2.01c2.02-1.17,0.46-3.95-3.48-6.23
					c-3.94-2.28-8.77-3.18-10.79-2.01C427.9,674.36,429.46,677.15,433.4,679.43z"/>
				<path class="st14" d="M478.97,680.94L478.97,680.94c9.37-5.41,8.19-14.85-2.62-21.1L455.3,647.7l-33.92,19.58l21.04,12.15
					C453.24,685.67,469.6,686.35,478.97,680.94z"/>
				<path class="st15" d="M472.98,657.91c-7.32,1.68-13.37,0.69-21.22,0.34c2.92,0.61,5.98,0.98,9.07,1.12
					c-8.01,1.27-16.51,1.5-24.69,0.65c4.21,2.01,9.67,3.13,15.14,3.1c-8.08,2.04-16.85,3.16-25.67,3.27
					c3.6,1.14,7.55,1.9,11.61,2.24c-2.63,0.53-5.45,0.76-8.24,0.66c0,0,5.28,5.43,13.29,10.06c0,0-25.47-7.85-27.01-14.6
					c0,0-1.08-3.46,2.34-4.38c0,0-0.69-6.33,13.02-12.66c9.14-4.22,22.85-4.54,32.76-1.03
					C467.95,648.29,484.18,655.35,472.98,657.91z"/>
				<path class="st15" d="M476.2,659.76c0,0-1.26-4.55-14.96-8.64L476.2,659.76z"/>
			</g>
		</g>
	</g>
	<g>
		<polygon class="st6" points="383.12,872.49 513.19,797.4 324.13,688.24 194.06,763.33 		"/>
		<polygon class="st7" points="319.16,818.61 419.87,760.47 411.32,755.53 310.6,813.67 		"/>
		<polygon class="st8" points="410.86,781.91 433.94,768.59 425.38,763.65 402.3,776.97 		"/>
		<polygon class="st8" points="333.23,826.73 396.55,790.18 387.99,785.24 324.67,821.8 		"/>
		<polygon class="st8" points="425.79,790.53 448.87,777.21 440.32,772.27 417.24,785.59 		"/>
		<polygon class="st8" points="348.16,835.36 411.48,798.8 402.92,793.86 339.6,830.42 		"/>
		<polygon class="st8" points="440.72,799.15 463.8,785.83 455.25,780.89 432.17,794.21 		"/>
		<polygon class="st8" points="363.09,843.98 426.41,807.42 417.85,802.48 354.53,839.04 		"/>
		<polygon class="st9" points="420.65,836.01 384.97,856.61 371.64,848.91 407.32,828.31 		"/>
		<path class="st10" d="M316.44,709.59c3.71,2.14,9.74,2.14,13.45,0c3.71-2.14,3.71-5.62,0-7.77c-3.71-2.14-9.74-2.14-13.45,0
			C312.73,703.97,312.73,707.45,316.44,709.59z"/>
		<path class="st11" d="M272.77,780.45c22.28,12.87,58.41,12.87,80.7,0c22.28-12.87,22.28-33.73,0-46.59
			c-22.28-12.87-58.41-12.87-80.7,0C250.49,746.73,250.49,767.59,272.77,780.45z"/>
		<g>
			<defs>
				<path id="SVGID_15_" d="M272.77,780.45c22.28,12.87,58.41,12.87,80.7,0c22.28-12.87,22.28-33.73,0-46.59
					c-22.28-12.87-58.41-12.87-80.7,0C250.49,746.73,250.49,767.59,272.77,780.45z"/>
			</defs>
			<clipPath id="SVGID_00000091016658887466651050000006881730778708473003_">
				<use xlink:href="#SVGID_15_"  style="overflow:visible;"/>
			</clipPath>
			<g style="clip-path:url(#SVGID_00000091016658887466651050000006881730778708473003_);">
				<path class="st10" d="M319.33,777.89l5.03-5.87l7.26-4.19l7.26-4.19l10.17-2.9c11.05-3.16,24.26-2.4,34.02,1.95l12.48,5.55
					l-31.61,18.25l-31.61,18.25l-9.62-7.2C315.17,791.9,313.86,784.28,319.33,777.89z"/>
				<path class="st14" d="M339.66,772.48L339.66,772.48c4.01-2.31,3.51-6.36-1.12-9.03l-7.72-4.46l-14.51,8.38l7.72,4.46
					C328.66,774.5,335.66,774.79,339.66,772.48z"/>
				<path class="st14" d="M322.85,746.91c3.94,2.28,8.77,3.18,10.79,2.01c2.02-1.17,0.46-3.95-3.48-6.23s-8.77-3.18-10.79-2.01
					C317.35,741.85,318.91,744.64,322.85,746.91z"/>
				<path class="st14" d="M287.22,767.48c3.94,2.28,8.77,3.18,10.79,2.01c2.02-1.17,0.46-3.95-3.48-6.23
					c-3.94-2.28-8.77-3.18-10.79-2.01C281.72,762.42,283.28,765.21,287.22,767.48z"/>
				<path class="st14" d="M332.79,769L332.79,769c9.37-5.41,8.19-14.85-2.62-21.1l-24.45-14.12l-33.92,19.58l24.45,14.12
					C307.06,773.73,323.42,774.41,332.79,769z"/>
				<path class="st15" d="M318.72,741.3c0,0-28.67,10.15-38.09,6.89c0,0,3.82,7.5,4.17,12.7c0,0-10.68-1.82-18.39-12.2
					c0,0-1.2-4.25,5.82-5.54c0,0,2.71-12.33,22.05-13.57C318.01,728.03,318.72,741.3,318.72,741.3z"/>
				<path class="st15" d="M327.73,746.5c0,0-4.33-7.2-13.43-12.62l-8.59-0.09L327.73,746.5z"/>
				<path class="st15" d="M293.81,766.08c0,0-10.17-4.53-16.73-8.13l-5.29-4.58L293.81,766.08z"/>
			</g>
		</g>
	</g>
</g>
<g>
	<path class="st21" d="M77.21,418.62l320.56-185.07c2.6-1.5,4.97-1.78,6.81-1.04l0,0l61.41,19.2v39.88l-55.71,0.6l8.66,229.52
		c0,6.71-4.71,14.87-10.52,18.22L132.54,691.28v50.82l-61.51-19.23c-0.2-0.05-0.4-0.11-0.59-0.18l-0.06-0.02v-0.01
		c-2.25-0.93-3.69-3.4-3.69-7.1V436.84C66.69,430.13,71.4,421.97,77.21,418.62z"/>
	<path class="st22" d="M77.21,418.62l320.56-185.07c2.6-1.5,4.97-1.78,6.81-1.04l0,0l61.41,19.2v39.88l-55.71,0.6l3.02,80.13
		c-26.77,16.2-58.42,32.84-70.73,36.78c-21.85,7-101.8,26.59-126.25,32.62c-24.45,6.03-63.63,10.52-66.64,9.03
		c-3.01-1.49-13.63-3.83-13.63-3.83l-66.13-20.67C71.82,423.04,74.38,420.25,77.21,418.62z"/>
	<g>
		<g>
			<path class="st23" d="M138.59,740.82l320.56-185.07c5.81-3.36,10.52-11.51,10.52-18.22V258.8c0-6.71-4.71-9.43-10.52-6.07
				L138.59,437.8c-5.81,3.36-10.52,11.51-10.52,18.22v278.72C128.06,741.45,132.78,744.17,138.59,740.82z"/>
		</g>
		<path class="st24" d="M138,438.15c0.2-0.13,0.39-0.23,0.59-0.34l312.63-180.5v158.93c0,9.69-6.8,21.48-15.2,26.32L153.2,605.84
			c-1.91,1.1-3.72,1.73-5.4,1.96v0.76l-3.72-0.97v-0.02c-3.69-1.07-6.08-4.77-6.08-10.5V438.15z"/>
		<g>
			<path class="st25" d="M157.46,606.99L440.28,443.7c8.39-4.85,15.2-16.63,15.2-26.32V254.85L142.26,435.68v162.53
				C142.26,607.91,149.06,611.84,157.46,606.99z"/>
		</g>
		<g>
			<path class="st26" d="M401.64,509.33v-51.18c9.55-5.51,17.29,32.25,17.29,21.23v-51.24c0-3.54-2.48-4.97-5.55-3.2l-23.49,13.56
				c-3.06,1.77-5.55,6.07-5.55,9.61v51.24C384.35,510.38,392.09,514.85,401.64,509.33z"/>
			<g>
				<path class="st27" d="M384.97,453.03l41.16-23.77c1.97-1.14,3.56-3.9,3.56-6.17v-7.97c0-2.27-1.59-3.19-3.56-2.06l-41.16,23.77
					c-1.97,1.14-3.56,3.9-3.56,6.17v7.97C381.41,453.24,383.01,454.16,384.97,453.03z"/>
			</g>
			<path class="st28" d="M405.55,502.55L405.55,502.55c9.55-5.51,17.29-20.31,17.29-33.04v-47.16c0-4.08-2.48-5.96-5.55-4.19
				l-23.49,13.56c-3.06,1.77-5.55,6.51-5.55,10.6v47.16C388.26,502.21,396,508.07,405.55,502.55z"/>
			<path class="st29" d="M391.28,484.36l28.55-16.48c1.67-0.96,3.02-3.54,3.02-5.77v-20.21c0-2.22-1.35-3.24-3.02-2.28l-28.55,16.48
				c-1.67,0.96-3.02,3.54-3.02,5.77v20.21C388.26,484.3,389.61,485.32,391.28,484.36z"/>
			<line class="st30" x1="405.55" y1="461.99" x2="405.55" y2="447.87"/>
		</g>
		<g>
			<path class="st26" d="M188.26,632.53L188.26,632.53c9.55-5.51,17.29-20.31,17.29-33.04v-47.16c0-4.08-2.48-5.96-5.55-4.19
				l-23.49,13.56c-3.06,1.77-5.55,6.51-5.55,10.6v47.16C170.97,632.19,178.71,638.04,188.26,632.53z"/>
			<g>
				<path class="st27" d="M171.59,576.22l41.16-23.77c1.97-1.14,3.56-3.9,3.56-6.17v-7.97c0-2.27-1.59-3.19-3.56-2.06l-41.16,23.77
					c-1.97,1.14-3.56,3.9-3.56,6.17v7.97C168.03,576.44,169.63,577.36,171.59,576.22z"/>
			</g>
			<path class="st28" d="M192.18,625.75L192.18,625.75c9.55-5.51,17.29-20.31,17.29-33.04v-47.16c0-4.08-2.48-5.96-5.55-4.19
				l-23.49,13.56c-3.06,1.77-5.55,6.51-5.55,10.6v47.16C174.88,625.41,182.63,631.26,192.18,625.75z"/>
			<path class="st29" d="M177.9,607.56l28.55-16.48c1.67-0.96,3.02-3.54,3.02-5.77V565.1c0-2.22-1.35-3.24-3.02-2.28L177.9,579.3
				c-1.67,0.96-3.02,3.54-3.02,5.77v20.21C174.88,607.5,176.24,608.52,177.9,607.56z"/>
			<line class="st30" x1="192.18" y1="585.19" x2="192.18" y2="571.06"/>
		</g>
	</g>
	<polygon class="st31" points="76.63,418.95 138.02,438.15 142.26,435.68 76.63,415.2 	"/>
	<polygon class="st32" points="142.26,435.68 455.47,254.85 389.84,234.36 76.63,415.2 	"/>
	<path class="st22" d="M180.47,386.15c5.91,0.91,11.98-1.11,13.56-4.52s-1.92-6.92-7.83-7.83c-5.91-0.91-11.98,1.11-13.56,4.52
		C171.06,381.73,174.56,385.23,180.47,386.15z"/>
	<path class="st22" d="M324.08,306.18c5.91,0.91,11.98-1.11,13.56-4.52s-1.92-6.92-7.83-7.83c-5.91-0.91-11.98,1.11-13.56,4.52
		C314.67,301.76,318.18,305.27,324.08,306.18z"/>
	<g>
		<path class="st32" d="M455.47,254.85c-99.26,60.43-201.49,119.37-303.28,175.45c0,0-9.94,5.39-9.94,5.39s9.64-5.91,9.64-5.91
			C251.35,369.65,353.51,310.6,455.47,254.85L455.47,254.85z"/>
	</g>
	<g>
		<path class="st32" d="M128.06,456.03c1.34,92.57,1.35,186.15,0,278.72C126.72,642.18,126.73,548.59,128.06,456.03L128.06,456.03z"
			/>
	</g>
	<polyline class="st33" points="301.69,272.24 326.95,257.65 326.95,297.24 	"/>
	<g>
		<path class="st23" d="M220.33,336.27l-15.93-27.73l86.67-50.22c2.07-1.26,4.97-1.12,8.17,0.73c6.3,3.64,11.42,12.49,11.42,19.77
			c0,3.4-1.13,5.84-2.96,7.12l0,0l0,0c-0.26,0.18-0.53,0.34-0.82,0.47L220.33,336.27z"/>
		<path class="st32" d="M215.36,323.01l-4.06-7.69l91.81-53.2c2.01,2,3.74,4.47,5.04,7.12L215.36,323.01z"/>
		<path class="st22" d="M199.89,316.42c0,7.28,5.11,16.13,11.42,19.77c6.3,3.64,11.42,0.69,11.42-6.59
			c0-7.28-5.11-16.13-11.42-19.77C205,306.19,199.89,309.14,199.89,316.42z"/>
	</g>
	<polyline class="st33" points="207.58,324.08 183.34,338.08 183.34,377.66 	"/>
</g>
<g>
	<path class="st34" d="M396.25,633.5c-48.32,27.9-48.32,73.13,0,101.03c48.32,27.9,126.67,27.9,174.99,0
		c48.32-27.9,48.32-73.13,0-101.03C522.92,605.61,444.57,605.61,396.25,633.5z M555.62,725.52c-39.7,22.92-104.06,22.92-143.75,0
		c-39.7-22.92-39.7-60.08,0-83c39.7-22.92,104.06-22.92,143.75,0C595.32,665.44,595.32,702.6,555.62,725.52z"/>
	<polygon class="st34" points="632.92,754.88 611.33,767.34 547.58,730.54 569.17,718.07 	"/>
	<rect x="360.01" y="672.57" class="st35" width="5.32" height="11.45"/>
	<rect x="602.16" y="672.57" class="st35" width="5.32" height="11.45"/>
	<polygon class="st36" points="632.92,744.93 611.33,757.4 547.58,720.59 569.17,708.12 	"/>
	<path class="st36" d="M396.25,620.75c-48.32,27.9-48.32,73.13,0,101.03c48.32,27.9,126.67,27.9,174.99,0
		c48.32-27.9,48.32-73.13,0-101.03C522.92,592.85,444.57,592.85,396.25,620.75z M555.62,712.77c-39.7,22.92-104.06,22.92-143.75,0
		c-39.7-22.92-39.7-60.08,0-83c39.7-22.92,104.06-22.92,143.75,0C595.32,652.69,595.32,689.85,555.62,712.77z"/>
	<ellipse class="st37" cx="483.74" cy="671.27" rx="101.65" ry="58.69"/>
	<path class="st38" d="M442.96,647.72c34.36-19.84,87.18-22.49,126.51-7.99c-3.9-3.53-8.5-6.88-13.84-9.96
		c-39.7-22.92-104.06-22.92-143.75,0c-39.7,22.92-39.7,60.08,0,83c5.34,3.08,11.14,5.74,17.25,7.99
		C404,698.05,408.6,667.55,442.96,647.72z"/>
	<g>
		<path class="st39" d="M637.76,747.49c0,10.21-7.17,22.62-16.01,27.72c-8.84,5.1-16.01,0.97-16.01-9.24
			c0-10.21,7.17-22.62,16.01-27.72C630.59,733.15,637.76,737.29,637.76,747.49z"/>
		<polygon class="st39" points="632.92,737.06 754.74,807.64 732.4,846.52 609.89,775.97 		"/>
		<path class="st40" d="M761.07,818.69c0,10.21-7.17,22.62-16.01,27.72c-8.84,5.1-16.01,0.97-16.01-9.24
			c0-10.21,7.17-22.62,16.01-27.72C753.9,804.34,761.07,808.48,761.07,818.69z"/>
	</g>
</g>
<circle class="st6" cx="365.33" cy="119.8" r="17.03"/>
<circle class="st2" cx="848.33" cy="533.59" r="17.03"/>
<circle class="st2" cx="621.51" cy="933.18" r="17.03"/>
<ellipse transform="matrix(0.6668 -0.7453 0.7453 0.6668 27.1979 446.77)" class="st6" cx="513.19" cy="192.97" rx="32.41" ry="32.41"/>
<ellipse transform="matrix(0.2282 -0.9736 0.9736 0.2282 -463.964 1216.271)" class="st2" cx="535.16" cy="900.77" rx="32.41" ry="32.41"/>
<ellipse transform="matrix(0.2685 -0.9633 0.9633 0.2685 44.0443 1350.9901)" class="st2" cx="911.55" cy="646.5" rx="32.41" ry="32.41"/>
<path class="st0" d="M3.53,231.12c20.78,7.28,43.12,11.25,66.39,11.25c110.86,0,200.74-89.87,200.74-200.74
	c0-14.28-1.5-28.2-4.33-41.63H3.53V231.12z"/>
<path class="st41" d="M1011.14,761.33c-12.15-2.3-24.69-3.51-37.51-3.51c-110.86,0-200.74,89.87-200.74,200.74
	c0,16.92,2.1,33.35,6.05,49.05h232.2V761.33z"/>
</svg>
